<?xml version="1.0" encoding="iso-8859-1"?>
<!-- Generator: Adobe Illustrator 19.0.0, SVG Export Plug-In . SVG Version: 6.00 Build 0)  -->
<svg xmlns="http://www.w3.org/2000/svg" xmlns:xlink="http://www.w3.org/1999/xlink" version="1.1" id="Layer_1" x="0px" y="0px" viewBox="0 0 511.996 511.996" style="enable-background:new 0 0 511.996 511.996;" xml:space="preserve" width="512px" height="512px">
<g>
	<g>
		<g>
			<path d="M490.647,42.663H117.33V10.664C117.33,4.773,112.549,0,106.658,0H63.995c-5.891,0-10.664,4.773-10.664,10.664v31.999h-32     c-5.891,0-10.672,4.781-10.672,10.672v42.664c0,5.891,4.781,10.664,10.672,10.664h32V501.34c0,5.875,4.773,10.656,10.664,10.656     h42.664c5.891,0,10.672-4.781,10.672-10.656V106.663h64v21.336H138.66v298.653h341.333V127.999h-42.656v-21.336h53.312     c5.906,0,10.688-4.773,10.688-10.664V53.335C501.335,47.444,496.554,42.663,490.647,42.663z M74.659,22h21.335v20.663H74.659V22z      M95.994,490.652H74.659V106.663h21.335V490.652z M458.647,149.335V405.34H159.994V149.335H458.647z M202.658,127.999v-21.336     h213.334v21.336H202.658z M479.991,85.335H85.338c2.727-0.008,5.453-1.047,7.531-3.125c4.164-4.164,4.164-10.922,0-15.086     s-10.922-4.164-15.086,0s-4.164,10.922,0,15.086c2.086,2.078,4.812,3.117,7.539,3.125H31.995V63.999h447.996V85.335z" fill="#8a9e3f"/>
			<path d="M213.635,295.278c-5.391,0-9.016-1.938-9.359-7.748h-18.453c0.164,13.404,10.445,21.576,27.219,21.576     c16.015,0,26.218-7.922,26.218-20.391c-0.001-12.483-10.626-16.358-20.657-18.975c-2.523-0.672-12.805-2.109-12.805-5.812     c0-2.359,2.188-3.711,6.062-3.711c4.727,0,7.586,2.109,7.672,5.734h17.281c-0.172-12.391-9.023-19.477-24.359-19.477     c-14.5,0-24.273,7.508-24.273,18.797c0,10.289,6.234,13.664,14.836,16.602c4.125,1.438,14.492,3.969,16.938,6     c0.758,0.654,1.18,1.42,1.18,2.436C221.135,293.34,218.268,295.278,213.635,295.278z" fill="#8a9e3f"/>
			<path d="M308.337,277.747c0-18.883-12.062-31.609-30-31.609c-18.641,0.001-30.86,12.477-30.86,31.516     c0,18.967,12.305,31.529,30.672,31.529C296.196,309.183,308.337,296.542,308.337,277.747z M266.189,277.404     c0-10.273,4.469-16.516,11.883-16.516c7.327,0.001,11.64,5.985,11.64,16.016c0,11.373-4.062,17.373-11.562,17.373     C270.572,294.277,266.189,288.121,266.189,277.404z" fill="#8a9e3f"/>
			<polygon points="320.337,247.74 320.337,307.746 365.43,307.746 365.43,292.074 338.806,292.074 338.806,247.74    " fill="#8a9e3f"/>
			<path d="M375.773,307.746h26.469c19.624,0,30.593-10.188,30.593-30.154c0-18.727-11.891-29.852-30.265-29.852h-26.797V307.746z      M393.805,262.826h5.484c9.438,0,15.266,4.891,15.266,15.094c0,9.016-4.469,14.67-13.5,14.67h-7.25V262.826z" fill="#8a9e3f"/>
			<path d="M245.134,202.662h128.39c5.875,0,10.656-4.773,10.656-10.664s-4.781-10.664-10.656-10.664h-128.39     c-5.891,0-10.664,4.773-10.664,10.664S239.243,202.662,245.134,202.662z" fill="#8a9e3f"/>
			<path d="M373.523,351.996h-128.39c-5.891,0-10.664,4.781-10.664,10.656c0,5.906,4.773,10.688,10.664,10.688h128.39     c5.875,0,10.656-4.781,10.656-10.688C384.18,356.777,379.398,351.996,373.523,351.996z" fill="#8a9e3f"/>
		</g>
	</g>
</g>
<g>
</g>
<g>
</g>
<g>
</g>
<g>
</g>
<g>
</g>
<g>
</g>
<g>
</g>
<g>
</g>
<g>
</g>
<g>
</g>
<g>
</g>
<g>
</g>
<g>
</g>
<g>
</g>
<g>
</g>
</svg>
